HIERARCHY
ROOT Hips
{
	OFFSET 47.684200 2.477074 100.082001
	CHANNELS 6 Xposition Yposition Zposition Xrotation Yrotation Zrotation
	JOINT spine
	{
		OFFSET 0.000000 -0.507026 8.817047
		CHANNELS 3 Xrotation Yrotation Zrotation
		JOINT spine1
		{
			OFFSET 0.000000 -0.000002 10.776596
			CHANNELS 3 Xrotation Yrotation Zrotation
			JOINT spine2
			{
				OFFSET 0.000000 -0.000002 10.325897
				CHANNELS 3 Xrotation Yrotation Zrotation
				JOINT Neck
				{
					OFFSET 0.000000 -1.263954 26.511002
					CHANNELS 3 Xrotation Yrotation Zrotation
					JOINT Head
					{
						OFFSET 0.000000 -0.000001 8.009659
						CHANNELS 3 Xrotation Yrotation Zrotation
						End Site
						{
							OFFSET 0.000000 6.393857 19.387894
						}
					}
				}
				JOINT RightShoulder
				{
					OFFSET -4.347950 0.605420 11.151199
					CHANNELS 3 Xrotation Yrotation Zrotation
					JOINT RightArm
					{
						OFFSET 0.000000 -0.000002 14.625793
						CHANNELS 3 Xrotation Yrotation Zrotation
						JOINT RightArmRoll
						{
							OFFSET 0.000000 -0.000001 7.383392
							CHANNELS 3 Xrotation Yrotation Zrotation
							JOINT RightForeArm
							{
								OFFSET 0.000000 -0.000004 21.505203
								CHANNELS 3 Xrotation Yrotation Zrotation
								JOINT RightForeArmRoll
								{
									OFFSET 0.000000 -0.000001 8.285324
									CHANNELS 3 Xrotation Yrotation Zrotation
									JOINT RightHand
									{
										OFFSET 0.000000 -0.000003 16.626801
										CHANNELS 3 Xrotation Yrotation Zrotation
										End Site
										{
											OFFSET 0.000000 0.000000 0.100006
										}
									}
								}
							}
						}
					}
				}
				JOINT LeftShoulder
				{
					OFFSET 4.347950 0.605420 11.151199
					CHANNELS 3 Xrotation Yrotation Zrotation
					JOINT LeftArm
					{
						OFFSET 0.000000 -0.000002 14.625793
						CHANNELS 3 Xrotation Yrotation Zrotation
						JOINT LeftArmRoll
						{
							OFFSET 0.000000 -0.000001 7.383392
							CHANNELS 3 Xrotation Yrotation Zrotation
							JOINT LeftForeArm
							{
								OFFSET 0.000000 -0.000004 21.505203
								CHANNELS 3 Xrotation Yrotation Zrotation
								JOINT LeftForeArmRoll
								{
									OFFSET 0.000000 -0.000001 8.285324
									CHANNELS 3 Xrotation Yrotation Zrotation
									JOINT LeftHand
									{
										OFFSET 0.000000 -0.000003 16.626801
										CHANNELS 3 Xrotation Yrotation Zrotation
										End Site
										{
											OFFSET 0.000000 0.000000 0.100006
										}
									}
								}
							}
						}
					}
				}
			}
		}
	}
	JOINT RightUpLeg
	{
		OFFSET -7.815102 1.202170 -1.433090
		CHANNELS 3 Xrotation Yrotation Zrotation
		JOINT RightUpLegRoll
		{
			OFFSET 0.000000 -0.000003 19.495895
			CHANNELS 3 Xrotation Yrotation Zrotation
			JOINT RightLeg
			{
				OFFSET 0.000000 0.000004 -24.142700
				CHANNELS 3 Xrotation Yrotation Zrotation
				JOINT RightLegRoll
				{
					OFFSET 0.000000 -0.000004 24.221703
					CHANNELS 3 Xrotation Yrotation Zrotation
					JOINT RightFoot
					{
						OFFSET 0.000000 -0.000003 20.160500
						CHANNELS 3 Xrotation Yrotation Zrotation
						JOINT RightToeBase
						{
							OFFSET 0.000000 -0.000003 16.853195
							CHANNELS 3 Xrotation Yrotation Zrotation
							End Site
							{
								OFFSET 0.007145 0.940779 8.161865
							}
						}
					}
				}
			}
		}
	}
	JOINT LeftUpLeg
	{
		OFFSET 7.815102 1.202170 -1.433090
		CHANNELS 3 Xrotation Yrotation Zrotation
		JOINT LeftUpLegRoll
		{
			OFFSET 0.000000 -0.000003 19.496002
			CHANNELS 3 Xrotation Yrotation Zrotation
			JOINT LeftLeg
			{
				OFFSET 0.000000 -0.000004 24.142593
				CHANNELS 3 Xrotation Yrotation Zrotation
				JOINT LeftLegRoll
				{
					OFFSET 0.000000 -0.000004 24.445602
					CHANNELS 3 Xrotation Yrotation Zrotation
					JOINT LeftFoot
					{
						OFFSET 0.000000 -0.000003 19.936600
						CHANNELS 3 Xrotation Yrotation Zrotation
						JOINT LeftToeBase
						{
							OFFSET 0.000000 -0.000003 16.853195
							CHANNELS 3 Xrotation Yrotation Zrotation
							End Site
							{
								OFFSET -0.032013 0.940779 8.161865
							}
						}
					}
				}
			}
		}
	}
}
MOTION
Frames: 10
Frame Time: 0.041667
51.683796 -8.990580 99.806816 -1.652032 -1.895553 4.359759 -2.057630 0.102339 0.104553 -0.112603 0.184538 0.211505 1.532458 0.187274 0.209323 20.415765 10.801184 -0.522464 -3.009918 -6.424249 0.533529 -4.221060 -57.946055 -4.921470 -25.484481 -119.060101 -7.083502 -0.000001 0.000010 -0.000000 0.829762 -10.158755 -0.259739 -0.000004 0.000013 -3.009760 -5.000228 -7.998800 0.000154 -12.114449 62.993114 14.502377 -41.485944 118.254139 37.322623 -0.000002 0.000000 -0.000001 6.402858 12.863171 -0.312750 0.000003 0.000001 3.000000 -5.000208 7.998710 -0.000165 -4.580772 -175.452506 1.543430 -179.999991 0.000005 -1.011000 164.292974 -2.919939 -1.045728 -0.000003 0.000001 0.256268 73.620546 6.621824 2.567648 25.456938 -7.353496 0.002899 -2.672052 178.563562 3.117302 -0.000005 -0.000005 -1.029730 -9.944130 2.465463 0.650403 -0.000002 0.000002 -0.084950 69.871394 -6.211221 -3.908943 25.456955 7.349060 -0.000008 
51.688400 -8.945954 99.803497 -1.652015 -1.896753 4.338065 -2.054281 0.101270 0.105321 -0.105916 0.183547 0.213069 1.539147 0.186270 0.210897 20.409339 10.806998 -0.517073 -3.001997 -6.415129 0.538301 -4.217588 -57.947359 -4.917564 -25.642951 -119.106068 -7.266767 0.000000 0.000010 -0.000001 0.775758 -10.164387 -0.263186 -0.000005 0.000013 -3.009762 -5.000232 -7.998801 0.000156 -12.119743 62.998120 14.508749 -41.535545 118.276050 37.388152 -0.000001 -0.000000 0.000001 6.407896 12.868817 -0.313072 -0.000001 0.000001 3.000001 -5.000210 7.998712 -0.000165 -4.597321 -175.451618 1.539128 -179.999991 0.000005 -1.011000 164.282879 -2.912100 -1.046089 -0.000004 0.000001 0.256268 73.614932 6.620205 2.572747 25.456935 -7.353495 0.002900 -2.675554 178.563562 3.114000 -0.000005 -0.000005 -1.029730 -9.946337 2.470322 0.650269 -0.000002 0.000002 -0.084950 69.870854 -6.211561 -3.905434 25.456957 7.349061 -0.000009 
51.674099 -8.946877 99.795708 -1.652688 -1.898172 4.315962 -2.050881 0.100212 0.106208 -0.099116 0.182619 0.214890 1.545948 0.185329 0.212730 20.403244 10.813158 -0.511648 -2.993973 -6.406486 0.543208 -4.214524 -57.949067 -4.914160 -25.801528 -119.152350 -7.449846 -0.000000 0.000010 -0.000001 0.719797 -10.169915 -0.266688 -0.000004 0.000013 -3.009760 -5.000228 -7.998802 0.000156 -12.124663 63.003775 14.514714 -41.586792 118.297428 37.455610 -0.000001 -0.000000 0.000001 6.413090 12.874854 -0.313424 0.000002 0.000001 3.000000 -5.000208 7.998711 -0.000166 -4.612877 -175.450717 1.535044 -179.999991 0.000005 -1.010999 164.272852 -2.905212 -1.046695 -0.000003 0.000001 0.256268 73.609440 6.618600 2.577939 25.456935 -7.353496 0.002900 -2.677703 178.564572 3.110866 -0.000005 -0.000005 -1.029750 -9.947873 2.474989 0.650073 -0.000002 0.000002 -0.084950 69.870315 -6.211870 -3.901919 25.456959 7.349062 -0.000008 
51.671097 -8.978084 99.798103 -1.653821 -1.899750 4.293579 -2.047444 0.099164 0.107177 -0.092237 0.181738 0.216892 1.552828 0.184435 0.214742 20.397371 10.819493 -0.506183 -2.985884 -6.398194 0.548211 -4.211725 -57.950959 -4.911108 -25.960617 -119.198986 -7.633071 0.000001 0.000010 -0.000001 0.662462 -10.175435 -0.270237 -0.000004 0.000012 -3.009760 -5.000230 -7.998800 0.000156 -12.129332 63.009957 14.520431 -41.639548 118.318206 37.524820 0.000002 -0.000000 0.000000 6.418386 12.881186 -0.313811 0.000000 0.000000 3.000001 -5.000206 7.998712 -0.000165 -4.627740 -175.449815 1.531124 -179.999991 0.000005 -1.010999 164.262853 -2.898335 -1.047316 -0.000004 0.000001 0.256268 73.604215 6.616887 2.583201 25.456936 -7.353496 0.002900 -2.678894 178.565570 3.107899 -0.000005 -0.000004 -1.029760 -9.948930 2.479522 0.649832 -0.000002 0.000002 -0.084950 69.869871 -6.212116 -3.898388 25.456957 7.349062 -0.000008 
51.680901 -8.962477 99.809814 -1.655231 -1.901407 4.271033 -2.043980 0.098119 0.108195 -0.085312 0.180882 0.219000 1.559748 0.183568 0.216861 20.391600 10.825918 -0.500679 -2.977767 -6.390091 0.553265 -4.209080 -57.953049 -4.908255 -26.120204 -119.244953 -7.816889 0.000001 0.000010 -0.000000 0.604337 -10.180846 -0.273814 -0.000006 0.000013 -3.009760 -5.000231 -7.998801 0.000156 -12.133939 63.016555 14.526077 -41.692557 118.339120 37.594307 -0.000002 -0.000000 0.000000 6.423729 12.887520 -0.314194 0.000001 0.000000 3.000000 -5.000209 7.998712 -0.000165 -4.642217 -175.447916 1.527205 -179.999991 0.000005 -1.010999 164.252922 -2.891448 -1.047912 -0.000004 0.000001 0.256268 73.599011 6.615200 2.588562 25.456936 -7.353496 0.002899 -2.679531 178.566567 3.105019 -0.000005 -0.000005 -1.029790 -9.949703 2.483978 0.649564 -0.000002 0.000002 -0.084950 69.869311 -6.212353 -3.894960 25.456957 7.349062 -0.000009 
51.680099 -8.962655 99.805115 -1.656702 -1.903086 4.248456 -2.040512 0.097075 0.109223 -0.078377 0.180032 0.221133 1.566688 0.182707 0.219005 20.385830 10.832341 -0.495155 -2.969632 -6.382038 0.558334 -4.206474 -57.955145 -4.905445 -26.278745 -119.292054 -7.999380 0.000000 0.000010 -0.000001 0.546022 -10.186347 -0.277408 -0.000006 0.000014 -3.009761 -5.000228 -7.998800 0.000156 -12.138470 63.023153 14.531661 -41.745508 118.360048 37.663767 -0.000001 -0.000001 0.000001 6.429091 12.894053 -0.314601 0.000002 0.000000 3.000000 -5.000206 7.998710 -0.000165 -4.656589 -175.447015 1.523394 -179.999991 0.000005 -1.011000 164.243018 -2.884574 -1.048510 -0.000004 0.000001 0.256268 73.593806 6.613511 2.593826 25.456936 -7.353495 0.002899 -2.680041 178.568561 3.102118 -0.000005 -0.000004 -1.029810 -9.950417 2.488415 0.649292 -0.000002 0.000002 -0.084950 69.868853 -6.212564 -3.891524 25.456959 7.349058 -0.000008 
51.675201 -8.957113 99.800499 -1.658047 -1.904714 4.225955 -2.037064 0.096030 0.110230 -0.071464 0.179171 0.223215 1.573598 0.181833 0.221096 20.380060 10.838766 -0.489671 -2.961511 -6.373886 0.563369 -4.203813 -57.957229 -4.902555 -26.436654 -119.339264 -8.181239 -0.000001 0.000010 -0.000001 0.488093 -10.191837 -0.281003 -0.000004 0.000014 -3.009761 -5.000228 -7.998800 0.000156 -12.143037 63.029546 14.537248 -41.797148 118.381740 37.731720 0.000001 0.000001 0.000002 6.434426 12.900382 -0.314991 0.000001 0.000001 3.000001 -5.000211 7.998710 -0.000165 -4.671165 -175.446113 1.519536 -179.999991 0.000005 -1.010999 164.233101 -2.877701 -1.049119 -0.000003 0.000001 0.256268 73.588602 6.611821 2.599187 25.456940 -7.353496 0.002899 -2.680820 178.569572 3.099221 -0.000005 -0.000004 -1.029830 -9.951263 2.492900 0.649033 -0.000002 0.000002 -0.084950 69.868396 -6.212809 -3.887992 25.456957 7.349061 -0.000007 
51.670399 -8.958717 99.802101 -1.659049 -1.906243 4.203657 -2.033633 0.094978 0.111176 -0.064608 0.178278 0.225167 1.580458 0.180928 0.223060 20.374181 10.845010 -0.484204 -2.953443 -6.365494 0.568334 -4.200939 -57.959127 -4.899409 -26.593908 -119.386639 -8.362647 0.000001 0.000010 -0.000002 0.431140 -10.197317 -0.284589 -0.000005 0.000014 -3.009760 -5.000230 -7.998800 0.000155 -12.147812 63.035625 14.543078 -41.849628 118.402586 37.800640 0.000000 -0.000000 0.000000 6.439688 12.906617 -0.315366 0.000001 0.000001 3.000001 -5.000208 7.998710 -0.000165 -4.686226 -175.445198 1.515568 -179.999991 0.000005 -1.011000 164.223170 -2.870815 -1.049708 -0.000004 0.000001 0.256268 73.583288 6.610136 2.604459 25.456938 -7.353496 0.002899 -2.682279 178.570569 3.096200 -0.000005 -0.000004 -1.029840 -9.952459 2.497472 0.648806 -0.000002 0.000002 -0.084950 69.867856 -6.213082 -3.884472 25.456960 7.349062 -0.000009 
51.682999 -8.956193 99.801308 -1.659511 -1.907591 4.181673 -2.030243 0.093918 0.112027 -0.057841 0.177335 0.226912 1.587228 0.179972 0.224815 20.367967 10.850993 -0.478763 -2.945453 -6.356702 0.573187 -4.197754 -57.960630 -4.895852 -26.749169 -119.434901 -8.542111 0.000001 0.000010 -0.000001 0.375751 -10.202884 -0.288147 -0.000005 0.000013 -3.009760 -5.000231 -7.998798 0.000155 -12.152892 63.041157 14.549237 -41.899054 118.424757 37.866115 0.000000 0.000001 0.000001 6.444838 12.912555 -0.315723 0.000002 0.000001 3.000001 -5.000209 7.998711 -0.000165 -4.702082 -175.444310 1.511407 -179.999991 0.000005 -1.011000 164.213075 -2.862981 -1.050051 -0.000004 0.000001 0.256268 73.577789 6.608524 2.609548 25.456935 -7.353496 0.002899 -2.684830 178.571553 3.093008 -0.000004 -0.000005 -1.029850 -9.954197 2.502196 0.648629 -0.000002 0.000002 -0.084950 69.867405 -6.213364 -3.881047 25.456955 7.349061 -0.000009 
51.675598 -8.929793 99.797203 -1.659232 -1.908711 4.160139 -2.026920 0.092846 0.112749 -0.051198 0.176322 0.228373 1.593867 0.178944 0.226287 20.361436 10.856718 -0.473397 -2.937572 -6.347367 0.577885 -4.194119 -57.961853 -4.891735 -26.902437 -119.484065 -8.719834 0.000000 0.000010 -0.000002 0.322517 -10.208542 -0.291665 -0.000005 0.000013 -3.009760 -5.000231 -7.998800 0.000155 -12.158281 63.045761 14.555698 -41.946364 118.447378 37.929225 0.000001 0.000001 0.000002 6.449828 12.918102 -0.316051 0.000003 0.000001 3.000000 -5.000207 7.998710 -0.000165 -4.719020 -175.443436 1.507009 -179.999991 0.000005 -1.011000 164.202966 -2.856094 -1.050645 -0.000003 0.000001 0.256268 73.572079 6.606924 2.614653 25.456936 -7.353496 0.002899 -2.688879 178.571567 3.089608 -0.000005 -0.000004 -1.029860 -9.956678 2.507131 0.648522 -0.000002 0.000002 -0.084950 69.866886 -6.213739 -3.877443 25.456953 7.349062 -0.000008 
